<svg width="613" height="613" viewBox="0 0 613 613" fill="none" xmlns="http://www.w3.org/2000/svg">
<path d="M613 613V390.091C613 281.169 590.202 195.046 461.017 195.046C400.223 195.046 357.161 227.975 341.963 260.905H339.43V205.178H217.843V613H344.496V410.355C344.496 357.161 354.628 306.5 420.488 306.5C486.347 306.5 486.347 367.293 486.347 415.422V613H613Z" fill="black"/>
<path d="M10.1316 205.178H136.784V613H10.1316V205.178Z" fill="black"/>
<path d="M73.4587 0C32.9297 0 0 32.9297 0 73.4587C0 113.988 32.9297 146.917 73.4587 146.917C113.988 146.917 146.917 113.988 146.917 73.4587C146.917 32.9297 113.988 0 73.4587 0Z" fill="black"/>
</svg>
